<?xml version="1.0" standalone="no"?>
<!DOCTYPE svg PUBLIC "-//W3C//DTD SVG 20010904//EN"
 "http://www.w3.org/TR/2001/REC-SVG-20010904/DTD/svg10.dtd">
<svg version="1.0" xmlns="http://www.w3.org/2000/svg"
 width="557.000000pt" height="580.000000pt" viewBox="0 0 557.000000 580.000000"
 preserveAspectRatio="xMidYMid meet">

<g transform="translate(0.000000,580.000000) scale(0.100000,-0.100000)"
fill="#000000" stroke="none">
<path d="M2490 5286 c-745 -95 -1397 -498 -1806 -1118 -526 -796 -551 -1836
-64 -2659 289 -487 753 -879 1272 -1073 131 -49 187 -49 234 -2 l34 34 0 262
c0 227 -2 261 -15 256 -41 -15 -203 -28 -305 -24 -182 8 -314 61 -423 170 -46
46 -69 80 -112 173 -83 175 -155 270 -265 345 -30 21 -65 49 -78 63 -58 62 9
108 127 87 135 -24 248 -108 351 -260 168 -249 378 -322 657 -228 l67 23 17
72 c23 91 58 167 105 221 20 24 35 44 33 46 -2 2 -44 8 -92 15 -49 7 -140 25
-202 41 -471 118 -730 391 -817 858 -28 153 -31 439 -5 548 34 149 90 267 183
390 l53 70 -20 65 c-43 137 -34 362 22 534 19 57 25 65 48 66 150 8 329 -53
554 -188 l117 -71 53 14 c100 27 276 53 424 64 222 15 501 -8 703 -60 l74 -19
76 48 c216 139 470 231 590 213 28 -4 32 -10 54 -81 13 -42 29 -111 36 -154
17 -103 8 -293 -17 -372 l-19 -60 54 -70 c71 -92 137 -224 168 -338 70 -258
28 -672 -95 -921 -160 -324 -431 -497 -903 -574 l-108 -17 37 -45 c48 -61 88
-150 107 -243 13 -62 16 -151 16 -487 0 -345 2 -416 15 -440 40 -77 114 -80
283 -14 757 297 1338 967 1525 1759 50 212 62 321 62 580 0 244 -7 327 -47
515 -99 478 -338 919 -683 1265 -378 378 -870 627 -1405 710 -142 23 -529 29
-670 11z"/>
<path d="M1160 1712 c0 -20 18 -32 47 -32 9 0 13 8 11 23 -4 30 -58 39 -58 9z"/>
<path d="M1267 1643 c-23 -22 18 -81 48 -70 22 9 18 44 -7 61 -25 18 -32 19
-41 9z"/>
<path d="M1367 1514 c-13 -14 -7 -51 11 -67 42 -38 78 -3 44 43 -20 26 -43 36
-55 24z"/>
<path d="M1478 1358 c-9 -22 10 -58 37 -70 21 -10 29 -9 43 5 15 16 15 20 2
45 -17 30 -73 44 -82 20z"/>
<path d="M1662 1259 c-27 -10 -28 -30 -4 -52 36 -33 101 -12 86 26 -8 21 -54
36 -82 26z"/>
<path d="M2059 1241 c-20 -16 -22 -23 -13 -38 17 -27 59 -28 85 -2 l22 22 -23
19 c-28 23 -42 23 -71 -1z"/>
<path d="M1863 1223 c-7 -2 -13 -15 -13 -29 0 -27 33 -40 75 -30 29 7 35 50 9
60 -18 7 -53 7 -71 -1z"/>
</g>
</svg>
